<svg width="32" height="32" aria-label="Skip to main Content icon" viewBox="0 0 30 30" fill="none" xmlns="http://www.w3.org/2000/svg">
              <path  d="M27.0335 5.69397H8.61686C8.04223 5.69397 7.49113 5.92224 7.0848 6.32857C6.67847 6.7349 6.4502 7.286 6.4502 7.86064V12.194H8.08324V7.19397H27.7002V23.694H8.06142V18.694H6.4502V23.0273C6.4502 23.6019 6.67847 24.153 7.0848 24.5594C7.49113 24.9657 8.04223 25.194 8.61686 25.194H27.0335C27.6082 25.194 28.1593 24.9657 28.5656 24.5594C28.9719 24.153 29.2002 23.6019 29.2002 23.0273V7.86064C29.2002 7.286 28.9719 6.7349 28.5656 6.32857C28.1593 5.92224 27.6082 5.69397 27.0335 5.69397ZM10.7835 18.694V16.5754H3.2002V14.694H10.7835V12.194L14.5 15.5L10.7835 18.694ZM24.8669 16H17.2835V14.3606H24.8669V16ZM24.8669 12.194H17.2835V10.694H24.8669V12.194ZM21.6169 20.194H17.2835V18.694H21.6169V20.194Z" fill="#1D0A69"></path>
            </svg>