<svg width="32" height="32" viewBox="0 0 24 24" fill="none" aria-label="Accessibility panel icon" xmlns="http://www.w3.org/2000/svg" class="jsx-1785232235">
              <path  d="M9.10943 11.1626C8.04754 11.1626 7.02744 11.1644 6.00735 11.1608C5.80813 11.1608 5.60625 11.1537 5.41059 11.1217C4.5817 10.9865 3.99295 10.2771 4.00006 9.43694C4.00718 8.61724 4.63684 7.89088 5.44883 7.77442C5.62403 7.74953 5.80279 7.74241 5.98067 7.74241C9.981 7.74064 13.9813 7.73886 17.9817 7.74508C18.2449 7.74508 18.5197 7.76642 18.7688 7.84377C19.5114 8.07403 19.9721 8.78171 19.9223 9.55963C19.8742 10.3118 19.2944 10.9794 18.5446 11.1101C18.2734 11.1572 17.9923 11.1581 17.7158 11.1599C16.7633 11.1652 15.8099 11.1617 14.7613 11.1617C14.82 12.0783 14.7666 12.9816 14.9543 13.8315C15.3945 15.823 15.9548 17.7878 16.4555 19.7659C16.6912 20.6985 16.1994 21.6044 15.3207 21.9032C14.3264 22.241 13.2796 21.6667 13.0279 20.6194C12.6864 19.196 12.368 17.7664 12.039 16.3404C12.0256 16.2817 12.0061 16.2248 11.9243 16.1652C11.7597 16.8818 11.5943 17.5993 11.4289 18.3159C11.2546 19.0724 11.0918 19.8317 10.9033 20.5847C10.6516 21.5867 9.71508 22.1485 8.73768 21.9058C7.79585 21.6711 7.22933 20.7127 7.47746 19.7303C7.92747 17.9451 8.35614 16.1537 8.86397 14.3845C9.16635 13.331 9.08898 12.2774 9.10854 11.1626H9.10943ZM11.9972 8.88306C10.0077 8.88306 8.01819 8.88306 6.0278 8.88306C5.8944 8.88306 5.75921 8.88039 5.62937 8.90173C5.33766 8.94796 5.14556 9.172 5.14289 9.4485C5.14022 9.73032 5.32165 9.94992 5.61692 10.0024C5.73609 10.0237 5.8606 10.0219 5.98244 10.0219C7.01588 10.0237 8.0502 10.0166 9.08364 10.0255C9.68307 10.0308 10.198 10.4051 10.2176 10.9394C10.2505 11.8587 10.3207 12.8011 10.1615 13.6955C9.91074 15.1002 9.48385 16.4737 9.12988 17.8607C8.94846 18.5701 8.75547 19.276 8.58026 19.9873C8.47976 20.3944 8.67898 20.7216 9.05162 20.8087C9.39669 20.8896 9.70708 20.6772 9.81469 20.2851C9.82359 20.2531 9.82625 20.2193 9.83337 20.1873C10.2336 18.435 10.632 16.6827 11.0393 14.9321C11.0865 14.7303 11.1514 14.5178 11.2661 14.3507C11.4636 14.0644 11.7659 13.948 12.1137 14.0129C12.5166 14.0884 12.7522 14.3418 12.8438 14.7392C13.2574 16.5449 13.6736 18.3505 14.089 20.1562C14.0961 20.1882 14.0978 20.2229 14.1058 20.2549C14.2108 20.6709 14.5221 20.895 14.876 20.8114C15.2602 20.7207 15.4479 20.3864 15.3394 19.957C15.0744 18.9142 14.804 17.8722 14.5319 16.8311C14.0578 15.0184 13.5002 13.2252 13.6656 11.3048C13.7385 10.4522 14.1085 10.0237 14.9739 10.021C15.9628 10.0184 16.9527 10.021 17.9417 10.0202C18.0528 10.0202 18.1649 10.0219 18.2734 10.0033C18.5989 9.94814 18.7999 9.70543 18.7821 9.40493C18.7643 9.11244 18.5589 8.91507 18.2334 8.88662C18.1231 8.87684 18.011 8.88039 17.8999 8.88039C15.9326 8.88039 13.9653 8.88039 11.9972 8.88039V8.88306Z" fill="#3d306e"></path>
              <path  d="M11.8704 6.62963C10.5698 6.62692 9.54923 5.59711 9.55557 4.29402C9.56192 3.02713 10.6133 1.9928 11.8876 2.00004C13.1583 2.00818 14.1879 3.05065 14.1852 4.3275C14.1824 5.60707 13.1519 6.63144 11.8704 6.62872V6.62963ZM13.026 4.31031C13.0214 3.67415 12.4867 3.1502 11.8522 3.15925C11.2296 3.16829 10.7157 3.68953 10.7148 4.31121C10.713 4.96185 11.2205 5.46861 11.8713 5.46771C12.5238 5.4668 13.0314 4.95733 13.026 4.3094V4.31031Z" fill="#3d306e"></path>
            </svg>